<svg width="193" height="22" viewBox="0 0 193 22" fill="none" xmlns="http://www.w3.org/2000/svg">
<path d="M6.3 21L0.14 0.195999H5.768L9.716 15.092L13.664 0.195999H19.236L13.076 21H6.3ZM20.9267 21V0.195999H26.3587V21H20.9267ZM29.4306 21V0.195999H38.6146C40.1266 0.195999 41.368 0.466666 42.3386 1.008C43.3093 1.53067 44.0746 2.268 44.6346 3.22C45.1946 4.172 45.5866 5.28267 45.8106 6.552C46.0346 7.80267 46.1466 9.156 46.1466 10.612C46.1466 14.2707 45.5213 16.9213 44.2706 18.564C43.0386 20.188 41.1533 21 38.6146 21H29.4306ZM34.8626 16.128H38.0546C39.0813 16.128 39.7813 15.6987 40.1546 14.84C40.528 13.9813 40.7146 12.572 40.7146 10.612C40.7146 9.38 40.6493 8.4 40.5186 7.672C40.4066 6.92533 40.2293 6.36533 39.9866 5.992C39.7626 5.61867 39.4826 5.376 39.1466 5.264C38.8293 5.13333 38.4653 5.068 38.0546 5.068H34.8626V16.128ZM54.196 21.168C53.748 21.168 53.2066 21.1213 52.572 21.028C51.956 20.9347 51.3493 20.7293 50.752 20.412C50.1733 20.0947 49.688 19.6093 49.296 18.956C48.904 18.284 48.708 17.3693 48.708 16.212V5.348C48.708 4.34 48.8666 3.5 49.184 2.828C49.5013 2.156 49.912 1.63333 50.416 1.26C50.92 0.867999 51.48 0.597333 52.096 0.447999C52.712 0.279999 53.3093 0.195999 53.888 0.195999C55.456 0.195999 56.8 0.223999 57.92 0.28C59.0586 0.317333 60.0386 0.363999 60.86 0.42C61.7 0.475999 62.4373 0.541332 63.072 0.615999V5.208H55.568C54.616 5.208 54.14 5.61867 54.14 6.44V8.176L61.672 8.456V12.768L54.14 13.048V14.616C54.14 15.12 54.252 15.4933 54.476 15.736C54.7 15.96 54.9893 16.072 55.344 16.072H63.072V20.664C62.2693 20.776 61.3546 20.8693 60.328 20.944C59.3013 21.0187 58.256 21.0747 57.192 21.112C56.128 21.1493 55.1293 21.168 54.196 21.168ZM73.9784 21.168C72.5037 21.168 71.2064 21.028 70.0864 20.748C68.9851 20.4493 68.0611 19.9267 67.3144 19.18C66.5677 18.4333 66.0077 17.3693 65.6344 15.988C65.2611 14.588 65.0744 12.7867 65.0744 10.584C65.0744 8.38133 65.2611 6.58933 65.6344 5.208C66.0077 3.808 66.5677 2.73467 67.3144 1.988C68.0611 1.24133 68.9851 0.727999 70.0864 0.447999C71.2064 0.149332 72.5037 -1.66893e-06 73.9784 -1.66893e-06C75.4531 -1.66893e-06 76.7411 0.149332 77.8424 0.447999C78.9624 0.727999 79.8957 1.24133 80.6424 1.988C81.3891 2.73467 81.9491 3.808 82.3224 5.208C82.6957 6.58933 82.8824 8.38133 82.8824 10.584C82.8824 12.7867 82.6957 14.588 82.3224 15.988C81.9491 17.3693 81.3891 18.4333 80.6424 19.18C79.8957 19.9267 78.9624 20.4493 77.8424 20.748C76.7411 21.028 75.4531 21.168 73.9784 21.168ZM73.9784 16.296C74.9117 16.296 75.6304 16.1467 76.1344 15.848C76.6384 15.5307 76.9837 14.9613 77.1704 14.14C77.3571 13.3187 77.4504 12.1333 77.4504 10.584C77.4504 8.97867 77.3571 7.76533 77.1704 6.944C76.9837 6.12267 76.6384 5.572 76.1344 5.292C75.6304 5.012 74.9117 4.872 73.9784 4.872C73.0451 4.872 72.3264 5.012 71.8224 5.292C71.3184 5.572 70.9731 6.12267 70.7864 6.944C70.5997 7.76533 70.5064 8.97867 70.5064 10.584C70.5064 12.1333 70.5997 13.3187 70.7864 14.14C70.9731 14.9613 71.3184 15.5307 71.8224 15.848C72.3264 16.1467 73.0451 16.296 73.9784 16.296ZM92.4306 21V0.195999H101.559C102.268 0.195999 102.996 0.279999 103.743 0.447999C104.489 0.597333 105.171 0.923999 105.787 1.428C106.421 1.91333 106.925 2.66 107.299 3.668C107.691 4.65733 107.887 5.98267 107.887 7.644C107.887 9.324 107.7 10.6773 107.327 11.704C106.953 12.712 106.468 13.4773 105.871 14C105.273 14.504 104.62 14.8493 103.911 15.036C103.22 15.204 102.539 15.288 101.867 15.288C101.157 15.288 100.42 15.2133 99.6546 15.064C98.8893 14.9147 98.292 14.8027 97.8626 14.728V21H92.4306ZM97.8626 10.416H100.999C101.559 10.416 101.941 10.192 102.147 9.744C102.352 9.27733 102.455 8.596 102.455 7.7C102.455 6.84133 102.343 6.188 102.119 5.74C101.895 5.292 101.521 5.068 100.999 5.068H97.8626V10.416ZM115.553 21C113.668 21 112.296 20.5707 111.437 19.712C110.579 18.8533 110.149 17.4813 110.149 15.596V0.195999H115.581V14.672C115.581 15.6427 116.067 16.128 117.037 16.128H123.085V21H115.553ZM123.788 21L129.948 0.195999H136.724L142.884 21H137.256L136.416 17.696H130.172L129.36 21H123.788ZM131.432 12.824H135.156L133.28 4.816L131.432 12.824ZM147.664 21V15.092L141.644 0.195999H147.272L150.492 9.548L153.712 0.195999H159.116L153.096 15.092V21H147.664ZM165.43 21.168C164.982 21.168 164.441 21.1213 163.806 21.028C163.19 20.9347 162.584 20.7293 161.986 20.412C161.408 20.0947 160.922 19.6093 160.53 18.956C160.138 18.284 159.942 17.3693 159.942 16.212V5.348C159.942 4.34 160.101 3.5 160.418 2.828C160.736 2.156 161.146 1.63333 161.65 1.26C162.154 0.867999 162.714 0.597333 163.33 0.447999C163.946 0.279999 164.544 0.195999 165.122 0.195999C166.69 0.195999 168.034 0.223999 169.154 0.28C170.293 0.317333 171.273 0.363999 172.094 0.42C172.934 0.475999 173.672 0.541332 174.306 0.615999V5.208H166.802C165.85 5.208 165.374 5.61867 165.374 6.44V8.176L172.906 8.456V12.768L165.374 13.048V14.616C165.374 15.12 165.486 15.4933 165.71 15.736C165.934 15.96 166.224 16.072 166.578 16.072H174.306V20.664C173.504 20.776 172.589 20.8693 171.562 20.944C170.536 21.0187 169.49 21.0747 168.426 21.112C167.362 21.1493 166.364 21.168 165.43 21.168ZM176.841 21V0.195999H185.717C186.93 0.195999 188.003 0.401333 188.937 0.812C189.889 1.22267 190.635 1.94133 191.177 2.968C191.718 3.976 191.989 5.38533 191.989 7.196C191.989 8.35333 191.858 9.30533 191.597 10.052C191.354 10.78 191.018 11.368 190.589 11.816C190.159 12.264 189.683 12.6373 189.161 12.936L192.773 21H187.257L184.345 13.832H182.273V21H176.841ZM182.273 9.52H184.737C185.334 9.52 185.782 9.34267 186.081 8.988C186.398 8.63333 186.557 8.04533 186.557 7.224C186.557 6.40267 186.398 5.84267 186.081 5.544C185.782 5.22667 185.334 5.068 184.737 5.068H182.273V9.52Z" fill="white"/>
</svg>
